<svg xmlns="http://www.w3.org/2000/svg" viewBox="0 0 90 45"><defs><style>.cls-1{fill:#1d1d1b;}.cls-2{fill:#fff;}</style></defs><g id="Capa_2" data-name="Capa 2"><g id="Capa_1-2" data-name="Capa 1"><rect class="cls-1" width="90" height="45"/><path class="cls-2" d="M84.78,39.7l-8.69-16a9.17,9.17,0,0,0,5.35-7.86c.42-4.73-2-8.88-6.73-10.29A16.55,16.55,0,0,0,70,5C64.83,5,59.64,5,54.45,5L31.28,4.9a.63.63,0,0,0-.69.39c-2.37,5-4.74,10.06-7.12,15.1-.72,1.52-1.44,3-2.18,4.62-.13-.24-.23-.42-.31-.6q-4.41-9.33-8.81-18.66L12,5.44a.78.78,0,0,0-.83-.53H5V40.08h7.07V20.68c.19.37,6.79,14.82,6.79,14.82h4.82l6.47-14c.13-.28.29-.54.41-.81V40.05H61.9v-15h7.51c.93,1.59,5.3,10.17,7.6,14.54l0,0,.24.47H85ZM37.61,9.83c.44,0,6.35-.09,8.91,0a6.66,6.66,0,0,1,2.23.25c1.83.73,2.75,3.08,2.62,5.27A4.23,4.23,0,0,1,49.3,19.2a2,2,0,0,1-.95.23H37.61ZM51.83,30.31c-.11,2.64-1.44,4.17-4.2,4.76a13.13,13.13,0,0,1-2.58.26c-2.33,0-7.24,0-7.44,0V24.62c.17,0,6.19,0,9.09.05C50.1,24.75,52,26.87,51.83,30.31ZM74.6,18.55a2.45,2.45,0,0,1-2,.88c-1.73,0-10.68,0-10.68,0V9.83s6.36,0,9.26,0a4.58,4.58,0,0,1,4.71,4.82A5.48,5.48,0,0,1,74.6,18.55Z"/></g></g></svg>