<svg xmlns="http://www.w3.org/2000/svg" viewBox="0 0 60 26.4"><defs><style>.cls-1{fill:#f4df52;}</style></defs><g id="Capa_2" data-name="Capa 2"><g id="Capa_1-2" data-name="Capa 1"><path class="cls-1" d="M59.84,26.1l-6.53-12a6.87,6.87,0,0,0,4-5.9,7,7,0,0,0-5-7.72A13,13,0,0,0,48.77.1C44.87.06,41,.05,37.08,0L19.71,0a.48.48,0,0,0-.52.29Q16.54,6,13.85,11.61c-.53,1.15-1.08,2.29-1.64,3.47L12,14.64q-3.32-7-6.61-14L5.27.41A.57.57,0,0,0,4.65,0H0V26.38H5.3V11.83C5.44,12.11,10.39,23,10.39,23H14l4.86-10.51c.09-.21.21-.4.3-.61V26.36H42.68V15.12h5.63c.7,1.19,4,7.63,5.7,10.9a0,0,0,0,0,0,0l.18.36H60ZM24.46,3.7c.33,0,4.76-.07,6.68,0a4.65,4.65,0,0,1,1.67.19c1.37.54,2.06,2.31,2,4a3.18,3.18,0,0,1-1.56,2.89,1.57,1.57,0,0,1-.7.17H24.46ZM35.12,19.06A3.47,3.47,0,0,1,32,22.63a10.43,10.43,0,0,1-1.93.19c-1.75,0-5.43,0-5.58,0v-8c.13,0,4.64,0,6.81,0C33.83,14.89,35.23,16.47,35.12,19.06ZM52.2,10.24a1.82,1.82,0,0,1-1.54.66c-1.29,0-8,0-8,0V3.7s4.78,0,7,0a3.44,3.44,0,0,1,3.53,3.62A4.13,4.13,0,0,1,52.2,10.24Z"/></g></g></svg>