<svg xmlns="http://www.w3.org/2000/svg" viewBox="0 0 80 35.2"><defs><style>.cls-1{fill:#f4df52;}</style></defs><g id="Capa_2" data-name="Capa 2"><g id="Capa_1-2" data-name="Capa 1"><path class="cls-1" d="M79.78,34.8,71.09,18.85A9.17,9.17,0,0,0,76.44,11c.42-4.73-2-8.88-6.73-10.29A16.55,16.55,0,0,0,65,.14C59.83.08,54.64.07,49.45.06L26.28,0a.63.63,0,0,0-.69.39c-2.37,5-4.74,10.06-7.12,15.1-.72,1.52-1.44,3-2.18,4.62-.13-.24-.23-.42-.31-.6Q11.57,10.18,7.17.85L7,.54A.78.78,0,0,0,6.2,0H0V35.18H7.07V15.78c.19.37,6.79,14.82,6.79,14.82h4.82l6.47-14c.13-.28.29-.54.41-.81V35.15H56.9v-15h7.51c.93,1.59,5.3,10.17,7.6,14.54l0,0,.24.47H80ZM32.61,4.93c.44,0,6.35-.09,8.91,0a6.66,6.66,0,0,1,2.23.25c1.83.73,2.75,3.08,2.62,5.27A4.23,4.23,0,0,1,44.3,14.3a2,2,0,0,1-.95.23H32.61ZM46.83,25.41c-.11,2.64-1.44,4.17-4.2,4.76a13.13,13.13,0,0,1-2.58.26c-2.33,0-7.24,0-7.44,0V19.72c.17,0,6.19,0,9.09.05C45.1,19.85,47,22,46.83,25.41ZM69.6,13.65a2.45,2.45,0,0,1-2,.88c-1.73,0-10.68,0-10.68,0V4.93s6.36,0,9.26,0a4.58,4.58,0,0,1,4.71,4.82A5.48,5.48,0,0,1,69.6,13.65Z"/></g></g></svg>