<svg xmlns="http://www.w3.org/2000/svg" viewBox="0 0 70 55"><defs><style>.cls-1{isolation:isolate;}.cls-2{mix-blend-mode:multiply;}.cls-3{fill:#c1da99;}</style></defs><g class="cls-1"><g id="Capa_2" data-name="Capa 2"><g id="Capa_1-2" data-name="Capa 1"><g class="cls-2"><path class="cls-3" d="M59.81,53.94h0l-.51-2.07s-.07-.26-.16-.65h0c-.36-1.43-1.18-4.78-1.2-4.86a10.21,10.21,0,0,0-9.82-7.49H32A22.46,22.46,0,0,0,47,44.6h1.17A4.5,4.5,0,0,1,52.47,48s.33,1.32.79,3.2h0c.08.33.18.7.27,1.07s.11.47.17.72h0c.11.43.22.87.33,1.33a.86.86,0,0,0,.83.66h5.21Z"/><path class="cls-3" d="M20.12,18.93H0a22.52,22.52,0,0,0,15,5.73H35.14A22.54,22.54,0,0,0,20.12,18.93Z"/><path class="cls-3" d="M40.83,26.39h.67l.21-.62c.46-1.48.94-2.95,1.43-4.41s1-2.81,1.43-4.07l3.06,9.1h.47l.75,0H49l.68,0,.81.08.83.1.83.14.79.16a22.39,22.39,0,0,1,8.15,3.62l.47.35,1.81,1.56L52,3.18l-.93-2.11a5.2,5.2,0,0,0-.67-.68A1.59,1.59,0,0,0,49.33,0H39.81a1.74,1.74,0,0,0-.64.13,2.45,2.45,0,0,0-.63.35A2.87,2.87,0,0,0,38,1a1,1,0,0,0-.24.48L31,18.93a25.47,25.47,0,0,1,5.78,3.86Z"/><path class="cls-3" d="M25.6,36.54l-1.29-.33L17.6,53.51a.87.87,0,0,0,.17,1.11,1.86,1.86,0,0,0,1.17.37h11a1.87,1.87,0,0,0,1.9-1.37c.47-1.26.95-2.51,1.43-3.76s1-2.5,1.43-3.76H40a25,25,0,0,1-9.72-5.36Z"/><path class="cls-3" d="M70,54l-.62-2.54h0l-.45-1.83h0l-.21-.83h0l-.58-2.41-.42-1.74h0L67.56,44l0-.13h0v0a.74.74,0,0,0,0-.14c-.06-.23-.24-.8-.25-.85-.08-.24-.44-1.21-.52-1.42l-.06-.15c-.09-.21-.18-.42-.28-.63l-.09-.19c-.09-.2-.19-.4-.29-.6l-.1-.18c-.08-.16-.17-.32-.26-.48l-.1-.19c-.11-.18-.21-.36-.32-.53s-.11-.17-.16-.25-.21-.33-.32-.49l-.19-.27-.21-.3L64,36.74l-.19-.24-.25-.32-.09-.11c-.17-.2-.35-.4-.53-.59l-.1-.12-.57-.59-.07-.06-.37-.36-.11-.11L61.45,34l-.13-.12-.27-.23-.13-.11-.28-.23-.12-.1L60.2,33l-.09-.07-.41-.3h0a20,20,0,0,0-7.23-3.22h0l-.69-.14h0l-.69-.12h0L50.38,29l-.11,0L49.6,29h-.06q-.3,0-.6,0H16a22.48,22.48,0,0,0,15,5.74H48.11a14.43,14.43,0,0,1,13.71,9.92v.05c0,.17.09.35.13.52h0c.37,1.55.75,3.1,1.12,4.63,0,.14.07.28.11.43.34,1.42.68,2.82,1,4.18h0c.06.21.11.43.16.64h4.79A.85.85,0,0,0,70,54Z"/></g></g></g></g></svg>