<svg xmlns="http://www.w3.org/2000/svg" viewBox="0 0 297.58 125.03"><defs><style>.cls-1{fill:#fff;}</style></defs><g id="Capa_2" data-name="Capa 2"><g id="Capa_3" data-name="Capa 3"><path class="cls-1" d="M296.77,123.61c-10.84-19-21.54-37.73-32.35-56.64C276.54,61.15,283.16,51.9,284.35,39c1.54-16.78-7.42-31.55-25.06-36.56C253.58.84,247.73.55,241.88.49,222.56.29,203.24.26,183.93.21Q140.85.07,97.77,0a2.4,2.4,0,0,0-2.59,1.39Q82,28.21,68.72,55C66,60.41,63.35,65.82,60.58,71.42c-.47-.86-.82-1.47-1.14-2.11Q43,36.17,26.67,3c-.18-.35-.35-.71-.53-1.07A2.85,2.85,0,0,0,23.07,0C16.1.08.84,0,0,0v124.9H26.29V56C27,57.35,51.56,108.7,51.56,108.7H69.48L93.57,58.91c.47-1,1.05-1.89,1.5-2.87v68.81h116.6V71.59h27.94c3.45,5.67,19.69,36.13,28.26,51.66a.38.38,0,0,0,.09.09l.92,1.69h28.7ZM121.3,17.51c1.64,0,23.63-.32,33.16,0,2.79.09,5.67-.11,8.29.89,6.79,2.58,10.21,11,9.74,18.74-.35,5.75-2.13,10.72-7.71,13.66a7.63,7.63,0,0,1-3.51.81h-40Zm52.9,72.74c-.42,9.38-5.35,14.83-15.62,16.91a52.42,52.42,0,0,1-9.61.93c-8.66.13-26.91.1-27.66.09V70.05c.64,0,23-.11,33.79.16C167.77,70.52,174.75,78,174.2,90.25Zm84.71-41.76a9.34,9.34,0,0,1-7.65,3.12c-6.41-.09-39.73,0-39.73,0V17.52s23.69-.05,34.48.06c10.43.1,17.36,7,17.5,17.13C263.58,39.84,262.52,44.55,258.91,48.49Z"/></g></g></svg>